<svg width="58" height="18" viewBox="0 0 58 18" fill="none" xmlns="http://www.w3.org/2000/svg">
<path d="M34.352 5.6L30.632 14H29.756L26.036 5.6H26.996L30.212 12.896L33.452 5.6H34.352ZM35.356 7.688H36.208V14H35.356V7.688ZM35.788 6.308C35.612 6.308 35.464 6.248 35.344 6.128C35.224 6.008 35.164 5.864 35.164 5.696C35.164 5.536 35.224 5.396 35.344 5.276C35.464 5.156 35.612 5.096 35.788 5.096C35.964 5.096 36.112 5.156 36.232 5.276C36.352 5.388 36.412 5.524 36.412 5.684C36.412 5.86 36.352 6.008 36.232 6.128C36.112 6.248 35.964 6.308 35.788 6.308ZM41.8306 7.64C42.4226 7.64 42.9586 7.776 43.4386 8.048C43.9186 8.312 44.2946 8.688 44.5666 9.176C44.8386 9.664 44.9746 10.22 44.9746 10.844C44.9746 11.468 44.8386 12.024 44.5666 12.512C44.2946 13 43.9186 13.38 43.4386 13.652C42.9586 13.924 42.4226 14.06 41.8306 14.06C41.3026 14.06 40.8266 13.948 40.4026 13.724C39.9866 13.5 39.6506 13.176 39.3946 12.752V14H38.5786V5.096H39.4306V8.888C39.6946 8.48 40.0306 8.172 40.4386 7.964C40.8546 7.748 41.3186 7.64 41.8306 7.64ZM41.7706 13.304C42.2106 13.304 42.6106 13.204 42.9706 13.004C43.3306 12.796 43.6106 12.504 43.8106 12.128C44.0186 11.752 44.1226 11.324 44.1226 10.844C44.1226 10.364 44.0186 9.936 43.8106 9.56C43.6106 9.184 43.3306 8.896 42.9706 8.696C42.6106 8.488 42.2106 8.384 41.7706 8.384C41.3226 8.384 40.9186 8.488 40.5586 8.696C40.2066 8.896 39.9266 9.184 39.7186 9.56C39.5186 9.936 39.4186 10.364 39.4186 10.844C39.4186 11.324 39.5186 11.752 39.7186 12.128C39.9266 12.504 40.2066 12.796 40.5586 13.004C40.9186 13.204 41.3226 13.304 41.7706 13.304ZM52.2074 11.108H46.9274C46.9754 11.764 47.2274 12.296 47.6834 12.704C48.1394 13.104 48.7154 13.304 49.4114 13.304C49.8034 13.304 50.1634 13.236 50.4914 13.1C50.8194 12.956 51.1034 12.748 51.3434 12.476L51.8234 13.028C51.5434 13.364 51.1914 13.62 50.7674 13.796C50.3514 13.972 49.8914 14.06 49.3874 14.06C48.7394 14.06 48.1634 13.924 47.6594 13.652C47.1634 13.372 46.7754 12.988 46.4954 12.5C46.2154 12.012 46.0754 11.46 46.0754 10.844C46.0754 10.228 46.2074 9.676 46.4714 9.188C46.7434 8.7 47.1114 8.32 47.5754 8.048C48.0474 7.776 48.5754 7.64 49.1594 7.64C49.7434 7.64 50.2674 7.776 50.7314 8.048C51.1954 8.32 51.5594 8.7 51.8234 9.188C52.0874 9.668 52.2194 10.22 52.2194 10.844L52.2074 11.108ZM49.1594 8.372C48.5514 8.372 48.0394 8.568 47.6234 8.96C47.2154 9.344 46.9834 9.848 46.9274 10.472H51.4034C51.3474 9.848 51.1114 9.344 50.6954 8.96C50.2874 8.568 49.7754 8.372 49.1594 8.372ZM54.7696 8.924C54.9696 8.5 55.2656 8.18 55.6576 7.964C56.0576 7.748 56.5496 7.64 57.1336 7.64V8.468L56.9296 8.456C56.2656 8.456 55.7456 8.66 55.3696 9.068C54.9936 9.476 54.8056 10.048 54.8056 10.784V14H53.9536V7.688H54.7696V8.924Z" fill="#C4C4C4"/>
<g clip-path="url(#clip0_29_453)">
<path d="M9.61196 10.1696C9.40611 10.3756 9.07226 10.3756 8.86627 10.1696L6.46987 7.77324C6.371 7.67436 6.31538 7.54019 6.31538 7.40039C6.31538 7.26045 6.371 7.12642 6.46987 7.0274L6.89587 6.60155L5.64466 5.35034L4.61964 6.37537C4.27467 6.72034 4.27481 7.2816 4.61964 7.62657L9.01293 12.0201C9.17897 12.1862 9.40116 12.2775 9.63861 12.2775C9.87605 12.2775 10.0982 12.186 10.2643 12.02L11.2893 10.9951L10.0381 9.74377L9.61196 10.1696Z" fill="#C4C4C4"/>
<path d="M17.2436 6.35312C17.2436 4.66246 16.5811 3.06889 15.3778 1.86575C14.1747 0.662613 12.5811 0 10.8906 0H7.12628C7.12628 0 7.12628 0 7.12614 0C5.43576 0 3.84219 0.662613 2.63919 1.86562C1.43605 3.06876 0.773438 4.66246 0.773438 6.35298V9.31187C0.773438 10.621 1.17279 11.8805 1.92838 12.954C2.59497 13.901 3.49146 14.6407 4.53667 15.1098V16.8094C4.53667 17.6881 5.02872 17.9999 5.45004 18C5.75107 18 6.05223 17.8514 6.34529 17.5585L8.23865 15.6649H10.8907C12.5813 15.6649 14.1748 15.0022 15.378 13.7991C16.5811 12.596 17.2437 11.0024 17.2437 9.31187L17.2436 6.35312ZM12.408 11.368L11.0099 12.7658C10.6447 13.1311 10.1577 13.332 9.63858 13.332C9.11948 13.332 8.63251 13.131 8.26721 12.7658L3.87378 8.37227C3.11778 7.616 3.11778 6.38567 3.87378 5.62953L5.27179 4.23166C5.37067 4.13264 5.5047 4.07716 5.64464 4.07716C5.78444 4.07716 5.91861 4.13264 6.01749 4.23166L8.01453 6.2287C8.1134 6.32758 8.16888 6.46175 8.16888 6.60155C8.16888 6.74135 8.1134 6.87552 8.01439 6.9744L7.58853 7.40025L9.23923 9.05095L9.66522 8.62495C9.87122 8.4191 10.2051 8.4191 10.4109 8.62509L12.408 10.6221C12.507 10.721 12.5625 10.8552 12.5625 10.995C12.5625 11.1349 12.507 11.2691 12.408 11.368ZM8.60916 5.11949C8.60916 4.82835 8.84523 4.59215 9.13651 4.59215C10.9637 4.59215 12.4503 6.0786 12.4503 7.90562C12.4503 8.1969 12.2142 8.43297 11.9229 8.43297C11.6318 8.43297 11.3956 8.1969 11.3956 7.90562C11.3956 6.66019 10.3822 5.64684 9.13651 5.64684C8.84523 5.64684 8.60916 5.41077 8.60916 5.11949ZM14.1821 8.43324C13.8908 8.43324 13.6548 8.19704 13.6548 7.9059C13.6549 6.69891 13.1848 5.5643 12.3315 4.7108C11.478 3.85744 10.3434 3.38736 9.13637 3.38736C8.84523 3.38736 8.60902 3.15129 8.60902 2.86002C8.60902 2.56888 8.84523 2.33267 9.13637 2.33267C10.625 2.33267 12.0245 2.91248 13.0772 3.9651C14.1299 5.01773 14.7096 6.41725 14.7095 7.9059C14.7095 8.19704 14.4734 8.43324 14.1821 8.43324Z" fill="#C4C4C4"/>
</g>
<defs>
<clipPath id="clip0_29_453">
<rect width="18" height="18" fill="white"/>
</clipPath>
</defs>
</svg>
