<svg width="91" height="18" viewBox="0 0 91 18" fill="none" xmlns="http://www.w3.org/2000/svg">
<path d="M38.9 5.6L36.068 14H35.132L32.672 6.836L30.2 14H29.276L26.444 5.6H27.356L29.78 12.824L32.288 5.6H33.116L35.588 12.86L38.048 5.6H38.9ZM43.7399 7.64C44.5319 7.64 45.1599 7.872 45.6239 8.336C46.0959 8.792 46.3319 9.46 46.3319 10.34V14H45.4799V10.424C45.4799 9.768 45.3159 9.268 44.9879 8.924C44.6599 8.58 44.1919 8.408 43.5839 8.408C42.9039 8.408 42.3639 8.612 41.9639 9.02C41.5719 9.42 41.3759 9.976 41.3759 10.688V14H40.5239V5.096H41.3759V8.792C41.6079 8.424 41.9279 8.14 42.3359 7.94C42.7439 7.74 43.2119 7.64 43.7399 7.64ZM50.853 7.64C51.677 7.64 52.309 7.848 52.749 8.264C53.189 8.672 53.409 9.28 53.409 10.088V14H52.593V13.016C52.401 13.344 52.117 13.6 51.741 13.784C51.373 13.968 50.933 14.06 50.421 14.06C49.717 14.06 49.157 13.892 48.741 13.556C48.325 13.22 48.117 12.776 48.117 12.224C48.117 11.688 48.309 11.256 48.693 10.928C49.085 10.6 49.705 10.436 50.553 10.436H52.557V10.052C52.557 9.508 52.405 9.096 52.101 8.816C51.797 8.528 51.353 8.384 50.769 8.384C50.369 8.384 49.985 8.452 49.617 8.588C49.249 8.716 48.933 8.896 48.669 9.128L48.285 8.492C48.605 8.22 48.989 8.012 49.437 7.868C49.885 7.716 50.357 7.64 50.853 7.64ZM50.553 13.388C51.033 13.388 51.445 13.28 51.789 13.064C52.133 12.84 52.389 12.52 52.557 12.104V11.072H50.577C49.497 11.072 48.957 11.448 48.957 12.2C48.957 12.568 49.097 12.86 49.377 13.076C49.657 13.284 50.049 13.388 50.553 13.388ZM59.0472 13.616C58.8872 13.76 58.6872 13.872 58.4472 13.952C58.2152 14.024 57.9712 14.06 57.7152 14.06C57.1232 14.06 56.6672 13.9 56.3472 13.58C56.0272 13.26 55.8672 12.808 55.8672 12.224V8.408H54.7392V7.688H55.8672V6.308H56.7192V7.688H58.6392V8.408H56.7192V12.176C56.7192 12.552 56.8112 12.84 56.9952 13.04C57.1872 13.232 57.4592 13.328 57.8112 13.328C57.9872 13.328 58.1552 13.3 58.3152 13.244C58.4832 13.188 58.6272 13.108 58.7472 13.004L59.0472 13.616ZM62.2902 14.06C61.7782 14.06 61.2862 13.988 60.8142 13.844C60.3502 13.692 59.9862 13.504 59.7222 13.28L60.1062 12.608C60.3702 12.816 60.7022 12.988 61.1022 13.124C61.5022 13.252 61.9182 13.316 62.3502 13.316C62.9262 13.316 63.3502 13.228 63.6222 13.052C63.9022 12.868 64.0422 12.612 64.0422 12.284C64.0422 12.052 63.9662 11.872 63.8142 11.744C63.6622 11.608 63.4702 11.508 63.2382 11.444C63.0062 11.372 62.6982 11.304 62.3142 11.24C61.8022 11.144 61.3902 11.048 61.0782 10.952C60.7662 10.848 60.4982 10.676 60.2742 10.436C60.0582 10.196 59.9502 9.864 59.9502 9.44C59.9502 8.912 60.1702 8.48 60.6102 8.144C61.0502 7.808 61.6622 7.64 62.4462 7.64C62.8542 7.64 63.2622 7.696 63.6702 7.808C64.0782 7.912 64.4142 8.052 64.6782 8.228L64.3062 8.912C63.7862 8.552 63.1662 8.372 62.4462 8.372C61.9022 8.372 61.4902 8.468 61.2102 8.66C60.9382 8.852 60.8022 9.104 60.8022 9.416C60.8022 9.656 60.8782 9.848 61.0302 9.992C61.1902 10.136 61.3862 10.244 61.6182 10.316C61.8502 10.38 62.1702 10.448 62.5782 10.52C63.0822 10.616 63.4862 10.712 63.7902 10.808C64.0942 10.904 64.3542 11.068 64.5702 11.3C64.7862 11.532 64.8942 11.852 64.8942 12.26C64.8942 12.812 64.6622 13.252 64.1982 13.58C63.7422 13.9 63.1062 14.06 62.2902 14.06ZM71.9173 11.756H67.2373L66.2293 14H65.3053L69.1453 5.6H70.0213L73.8613 14H72.9253L71.9173 11.756ZM71.5933 11.036L69.5773 6.524L67.5613 11.036H71.5933ZM78.3228 7.64C78.9148 7.64 79.4508 7.776 79.9308 8.048C80.4108 8.312 80.7868 8.688 81.0588 9.176C81.3308 9.664 81.4668 10.22 81.4668 10.844C81.4668 11.476 81.3308 12.036 81.0588 12.524C80.7868 13.012 80.4108 13.392 79.9308 13.664C79.4588 13.928 78.9228 14.06 78.3228 14.06C77.8108 14.06 77.3468 13.956 76.9308 13.748C76.5228 13.532 76.1868 13.22 75.9228 12.812V16.328H75.0708V7.688H75.8868V8.936C76.1428 8.52 76.4788 8.2 76.8948 7.976C77.3188 7.752 77.7948 7.64 78.3228 7.64ZM78.2628 13.304C78.7028 13.304 79.1028 13.204 79.4628 13.004C79.8228 12.796 80.1028 12.504 80.3028 12.128C80.5108 11.752 80.6148 11.324 80.6148 10.844C80.6148 10.364 80.5108 9.94 80.3028 9.572C80.1028 9.196 79.8228 8.904 79.4628 8.696C79.1028 8.488 78.7028 8.384 78.2628 8.384C77.8148 8.384 77.4108 8.488 77.0508 8.696C76.6988 8.904 76.4188 9.196 76.2108 9.572C76.0108 9.94 75.9108 10.364 75.9108 10.844C75.9108 11.324 76.0108 11.752 76.2108 12.128C76.4188 12.504 76.6988 12.796 77.0508 13.004C77.4108 13.204 77.8148 13.304 78.2628 13.304ZM86.4556 7.64C87.0476 7.64 87.5836 7.776 88.0636 8.048C88.5436 8.312 88.9196 8.688 89.1916 9.176C89.4636 9.664 89.5996 10.22 89.5996 10.844C89.5996 11.476 89.4636 12.036 89.1916 12.524C88.9196 13.012 88.5436 13.392 88.0636 13.664C87.5916 13.928 87.0556 14.06 86.4556 14.06C85.9436 14.06 85.4796 13.956 85.0636 13.748C84.6556 13.532 84.3196 13.22 84.0556 12.812V16.328H83.2036V7.688H84.0196V8.936C84.2756 8.52 84.6116 8.2 85.0276 7.976C85.4516 7.752 85.9276 7.64 86.4556 7.64ZM86.3956 13.304C86.8356 13.304 87.2356 13.204 87.5956 13.004C87.9556 12.796 88.2356 12.504 88.4356 12.128C88.6436 11.752 88.7476 11.324 88.7476 10.844C88.7476 10.364 88.6436 9.94 88.4356 9.572C88.2356 9.196 87.9556 8.904 87.5956 8.696C87.2356 8.488 86.8356 8.384 86.3956 8.384C85.9476 8.384 85.5436 8.488 85.1836 8.696C84.8316 8.904 84.5516 9.196 84.3436 9.572C84.1436 9.94 84.0436 10.364 84.0436 10.844C84.0436 11.324 84.1436 11.752 84.3436 12.128C84.5516 12.504 84.8316 12.796 85.1836 13.004C85.5436 13.204 85.9476 13.304 86.3956 13.304Z" fill="#C4C4C4"/>
<g clip-path="url(#clip0_29_458)">
<path d="M9.00225 0H8.99775C4.03538 0 0 4.0365 0 9C0 10.9688 0.6345 12.7935 1.71337 14.2751L0.59175 17.6186L4.05113 16.5128C5.47425 17.4555 7.17188 18 9.00225 18C13.9646 18 18 13.9624 18 9C18 4.03763 13.9646 0 9.00225 0ZM14.2391 12.7091C14.022 13.3223 13.1602 13.8307 12.4729 13.9792C12.0026 14.0794 11.3884 14.1593 9.32063 13.302C6.67575 12.2063 4.9725 9.51862 4.83975 9.34425C4.71263 9.16988 3.771 7.92112 3.771 6.62963C3.771 5.33813 4.42688 4.70925 4.69125 4.43925C4.90838 4.21763 5.26725 4.11637 5.6115 4.11637C5.72288 4.11637 5.823 4.122 5.913 4.1265C6.17737 4.13775 6.31012 4.1535 6.4845 4.57088C6.70162 5.094 7.23037 6.3855 7.29338 6.51825C7.3575 6.651 7.42163 6.831 7.33162 7.00538C7.24725 7.18538 7.173 7.26525 7.04025 7.41825C6.9075 7.57125 6.7815 7.68825 6.64875 7.8525C6.52725 7.99538 6.39 8.14838 6.543 8.41275C6.696 8.6715 7.22475 9.53437 8.00325 10.2274C9.00787 11.1217 9.82237 11.4075 10.1137 11.529C10.3309 11.619 10.5896 11.5976 10.7483 11.4289C10.9496 11.2118 11.1982 10.8518 11.4514 10.4974C11.6314 10.2431 11.8586 10.2116 12.0971 10.3016C12.3401 10.386 13.626 11.0216 13.8904 11.1532C14.1547 11.286 14.3291 11.349 14.3932 11.4604C14.4562 11.5718 14.4562 12.0949 14.2391 12.7091Z" fill="#C4C4C4"/>
</g>
<defs>
<clipPath id="clip0_29_458">
<rect width="18" height="18" fill="white"/>
</clipPath>
</defs>
</svg>
